<?xml version="1.0" standalone="no"?>
<!DOCTYPE svg PUBLIC "-//W3C//DTD SVG 20010904//EN"
 "http://www.w3.org/TR/2001/REC-SVG-20010904/DTD/svg10.dtd">
<svg version="1.0" xmlns="http://www.w3.org/2000/svg"
 width="525.000000pt" height="525.000000pt" viewBox="0 0 525.000000 525.000000"
 preserveAspectRatio="xMidYMid meet">
<metadata>
Created by potrace 1.14, written by Peter Selinger 2001-2017
</metadata>
<g transform="translate(0.000000,525.000000) scale(0.100000,-0.100000)"
fill="#000000" stroke="none">
<path d="M3418 5165 c-2 -2 -34 -6 -73 -10 -126 -12 -453 -107 -471 -136 -3
-5 -12 -9 -19 -9 -20 0 -204 -110 -278 -166 -95 -73 -235 -207 -275 -265 -9
-13 -25 -33 -35 -44 -10 -11 -28 -36 -40 -55 -11 -19 -24 -37 -27 -40 -4 -3
-10 -12 -13 -20 -4 -8 -16 -28 -27 -45 -20 -32 -26 -44 -83 -166 -32 -69 -77
-198 -77 -219 0 -5 26 -2 58 5 99 24 114 26 205 30 49 3 91 6 95 8 18 8 283
-8 312 -20 8 -3 24 -7 35 -9 20 -2 68 -12 95 -19 8 -2 23 -4 33 -4 10 -1 16
-4 14 -8 -3 -5 7 -9 21 -9 36 -2 172 -56 166 -66 -3 -4 1 -5 9 -2 16 6 137
-51 149 -70 5 -6 8 -7 8 -1 0 6 7 1 16 -10 8 -11 18 -19 22 -18 4 0 6 -3 5 -8
-2 -4 3 -6 10 -3 12 4 103 -57 119 -80 4 -6 8 -7 8 -3 0 5 6 2 14 -5 7 -7 37
-33 66 -58 91 -78 170 -162 220 -235 14 -20 32 -44 41 -53 22 -24 82 -125 82
-139 0 -7 6 -14 14 -17 7 -3 13 -14 13 -24 0 -11 7 -25 15 -32 9 -7 14 -19 11
-27 -3 -7 -2 -13 2 -13 13 0 64 -130 57 -147 -3 -9 0 -11 7 -7 8 5 9 2 5 -9
-3 -10 -2 -17 3 -17 4 0 13 -21 20 -47 32 -137 41 -187 36 -199 -3 -8 -2 -14
3 -14 11 0 11 -6 16 -195 2 -94 0 -189 -5 -210 -4 -22 -11 -61 -13 -86 -3 -26
-11 -66 -17 -88 -14 -55 -7 -64 36 -46 19 8 33 11 30 6 -3 -4 18 4 47 17 28
14 64 26 79 26 14 1 26 4 25 7 -3 9 170 98 177 91 3 -3 6 0 6 6 0 12 59 48 73
44 5 -1 6 2 2 8 -6 9 8 14 28 11 5 -1 6 3 2 9 -3 5 -2 10 3 10 5 0 20 9 33 20
97 83 140 123 193 179 34 36 73 77 88 93 14 15 24 28 22 28 -3 0 13 24 34 53
21 28 51 75 67 102 16 28 34 57 41 65 7 8 13 18 13 22 1 5 14 36 30 70 15 35
34 80 40 101 7 20 17 37 22 37 6 0 8 4 5 9 -3 5 1 32 10 62 16 54 22 76 30
119 2 14 7 36 10 50 23 98 33 346 19 445 -3 17 -7 53 -9 82 -2 28 -6 55 -9 60
-4 8 -12 38 -22 92 -12 63 -83 247 -131 341 -209 403 -577 699 -1014 813 -88
23 -113 28 -210 43 -36 5 -318 13 -322 9z m910 -1044 c104 -32 282 -147 266
-172 -3 -5 0 -8 8 -7 7 2 12 -3 10 -9 -1 -7 4 -13 10 -13 17 0 50 -59 41 -72
-3 -7 -1 -8 5 -4 22 13 84 -138 86 -210 0 -23 5 -39 10 -36 5 3 7 -36 4 -94
-6 -98 -42 -238 -72 -274 -6 -8 -18 -28 -26 -45 -8 -16 -47 -61 -85 -100 -101
-101 -226 -162 -367 -180 -46 -5 -58 1 -39 20 38 42 76 276 57 355 -3 14 -9
41 -12 60 -3 19 -26 77 -51 128 -62 126 -153 220 -273 279 -47 23 -107 47
-135 54 -27 6 -57 12 -65 14 -8 2 -34 4 -57 4 -45 1 -53 10 -28 35 8 8 15 17
15 21 0 4 6 12 13 20 6 7 23 27 36 44 13 17 28 28 34 24 5 -3 7 -1 4 4 -4 6
10 23 31 39 20 15 40 33 44 38 4 6 8 7 8 2 0 -5 8 -2 18 6 29 26 82 49 94 42
6 -4 8 -3 5 3 -8 13 72 37 125 37 20 1 34 5 31 10 -10 15 189 -3 255 -23z"/>
<path d="M2186 3718 c-496 -39 -949 -354 -1159 -808 -45 -98 -83 -208 -74
-216 2 -3 26 0 53 6 27 6 74 13 104 15 30 2 55 5 55 5 0 14 283 11 352 -4 11
-2 42 -8 67 -11 25 -4 46 -11 46 -15 0 -4 8 -7 18 -6 33 2 112 -26 105 -38 -4
-8 -2 -7 7 1 9 8 20 6 46 -9 19 -11 34 -18 34 -15 0 8 148 -66 204 -101 25
-16 43 -31 41 -34 -3 -3 1 -5 8 -5 21 0 147 -105 140 -116 -3 -6 -1 -7 5 -3 6
3 18 -4 27 -16 8 -13 19 -23 23 -23 3 0 29 -25 56 -55 27 -30 52 -57 55 -60 4
-3 29 -39 57 -80 72 -107 126 -208 118 -222 -4 -6 -3 -8 3 -5 9 6 66 -140 66
-170 0 -7 3 -13 7 -13 4 0 7 -6 8 -12 1 -7 6 -35 12 -63 7 -27 13 -59 15 -70
2 -11 6 -40 11 -65 9 -57 10 -279 1 -346 -4 -29 -13 -83 -21 -120 -8 -38 -13
-70 -12 -71 5 -5 111 29 122 38 7 5 25 11 42 12 16 1 28 5 26 9 -6 9 53 28 62
20 4 -4 4 -2 1 4 -8 14 40 37 56 28 7 -4 9 -4 5 1 -4 4 30 31 75 59 91 57 109
71 210 166 39 36 74 64 78 63 5 -2 6 4 3 12 -4 10 0 15 12 15 9 0 15 3 11 6
-3 4 -1 12 6 19 7 7 23 27 36 44 13 17 27 28 32 25 5 -3 6 1 3 9 -3 8 2 20 11
27 8 7 15 16 15 21 0 4 11 24 24 44 50 73 141 286 162 380 8 33 24 117 31 160
9 57 9 287 0 369 -18 154 -78 338 -160 489 -92 169 -250 351 -387 447 -19 14
-37 27 -40 30 -12 13 -110 71 -176 104 -86 43 -179 79 -265 101 -113 30 -157
36 -349 48 -19 1 -75 -1 -124 -5z"/>
<path d="M1079 2435 c-2 -1 -25 -6 -50 -9 -219 -29 -474 -156 -639 -317 -154
-151 -239 -283 -308 -476 l-29 -80 29 1 c15 1 28 4 28 8 0 4 10 8 23 7 12 0
42 4 66 9 56 12 272 12 342 0 30 -5 64 -11 76 -13 12 -2 28 -7 35 -11 7 -4 27
-9 44 -11 18 -2 45 -10 61 -18 15 -8 32 -15 36 -15 27 0 237 -108 237 -122 0
-4 7 -8 15 -8 9 0 18 -7 21 -15 4 -8 12 -15 20 -15 7 0 18 -8 23 -17 6 -10 11
-15 11 -11 0 4 21 -13 48 -38 26 -25 46 -51 44 -57 -2 -7 0 -9 4 -4 8 7 54
-30 54 -45 0 -4 13 -20 29 -35 54 -53 191 -292 191 -335 0 -8 3 -18 8 -22 4
-4 7 -11 8 -14 0 -4 4 -19 8 -33 4 -14 9 -32 10 -40 2 -8 6 -22 11 -31 4 -10
5 -24 2 -32 -3 -8 -2 -16 3 -18 5 -2 12 -32 14 -68 3 -36 6 -66 7 -67 7 -11 3
-51 -5 -62 -8 -11 -8 -13 2 -7 18 11 8 -146 -18 -270 -7 -30 -10 -57 -8 -59 2
-2 29 5 61 16 32 11 63 16 69 13 6 -4 8 -3 5 3 -4 6 1 14 10 17 9 4 20 1 25
-6 6 -10 8 -9 8 3 0 9 21 25 50 39 27 13 68 36 92 51 23 15 46 25 51 22 6 -3
7 -2 4 3 -3 6 8 19 24 29 16 11 29 23 29 28 0 4 5 7 11 7 7 0 22 11 35 25 13
14 27 25 31 26 9 0 117 126 151 176 13 19 28 31 34 27 7 -5 8 -2 3 5 -4 8 1
24 12 39 24 34 113 221 119 252 0 3 3 12 7 20 10 25 39 162 44 210 11 100 4
354 -11 378 -3 5 -8 22 -10 39 -11 60 -49 170 -87 248 -120 251 -328 457 -580
574 -162 76 -320 110 -510 110 -70 0 -128 -2 -130 -4z"/>
</g>
</svg>
